<svg xmlns="http://www.w3.org/2000/svg" width="294" height="32" viewBox="0 0 294 32"><g><path fill="#00655D" d="M22.5 13.1l26-13.1v32l-26-13.1z"/><path opacity=".5" fill="#99CFCB" enable-background="new" d="M22.5 13.1l26-13.1v16h-26z"/><path fill="#00655D" d="M22.5 18.9l-16.2 3.3v-12.4l16.2 3.3z"/><path opacity=".5" fill="#99CFCB" enable-background="new" d="M22.5 16h-16.2v-6.2l16.2 3.3z"/><path fill="#66B6B0" d="M12.51 15.975l-6.222 6.222-6.222-6.222 6.222-6.222z"/><path fill="#66B6B0" d="M32.534 16.022l-9.97 9.97-9.97-9.97 9.97-9.97z"/><path fill="#66B6B0" d="M64.465 16.03l-15.98 15.98-15.98-15.98 15.98-15.98z"/><g fill="#fff"><path d="M91.9 19.6l-.5.3c-.2.1-.5.2-.7.2-.2.1-.5.1-.8.2l-.7.1h-1.2c-.6 0-1.3 0-2.2-.1l-.1-.1v-10.6l.1-.1c.9 0 2.1-.1 3.5-.1.9 0 1.6.2 2.1.4.6.3 1 .7 1.4 1.2.3.5.6 1.1.7 1.7.1.7.2 1.4.2 2.1 0 1-.1 2-.3 2.7-.5.9-.9 1.5-1.5 2.1zm-2.8-8.8h-1.9v8.2h1.9c1.8 0 2.7-1.4 2.7-4.1 0-1.4-.2-2.5-.7-3.1-.4-.6-1.1-1-2-1z"/><path d="M101.4 19.6c-.1.4-.3.7-.6.8-.6-.1-1-.4-1.2-1-.7.7-1.5 1.1-2.3 1.1-.4 0-.8-.1-1-.2-.3-.1-.5-.3-.8-.5-.2-.2-.4-.5-.5-.7-.1-.3-.2-.6-.2-.9 0-.9.3-1.5.8-2 .5-.4 1.3-.7 2.2-.7h.8s.5 0 .7.1v-.6c0-.9-.4-1.4-1.3-1.4-.6 0-1.4.2-2.5.6-.3-.3-.5-.7-.5-1.2 1.1-.5 2.2-.7 3.3-.7.8 0 1.5.2 1.9.6.5.4.7 1.1.7 2v3.2c.1.8.2 1.2.5 1.5zm-3.9-.4c.7 0 1.3-.3 1.9-.9v-1.5c-.2 0-.4 0-.7-.1h-.7c-.5 0-.9.1-1.1.4-.3.2-.4.5-.4.9s.1.7.3.9c.1.2.4.3.7.3z"/><path d="M107 12.5c.1.2.1.4.1.6 0 .2 0 .4-.1.6h-1.9v4.7c0 .5.2.7.6.7h1.1c.1.2.1.5.1.7v.5c-.6.1-1.2.1-1.8.1-1.1 0-1.6-.5-1.6-1.6v-5h-1.2l-.1-.6s0-.4.1-.6h1.2v-1.4c0-.4.1-.6.2-.8.1-.2.4-.2.7-.2h.6l.1.1v2.3l1.9-.1z"/><path d="M114.7 19.6c-.1.4-.3.7-.6.8-.6-.1-1-.4-1.2-1-.7.7-1.5 1.1-2.3 1.1-.4 0-.8-.1-1-.2-.3-.1-.5-.3-.8-.5-.2-.2-.4-.5-.5-.7s-.2-.6-.2-.9c0-.9.3-1.5.8-2 .5-.4 1.3-.7 2.2-.7h.8s.5 0 .7.1v-.6c0-.9-.4-1.4-1.3-1.4-.6 0-1.4.2-2.5.6-.3-.3-.5-.7-.5-1.2 1.1-.5 2.2-.7 3.3-.7.8 0 1.5.2 1.9.6.5.4.7 1.1.7 2v3.2c.1.8.2 1.2.5 1.5zm-3.9-.4c.7 0 1.3-.3 1.9-.9v-1.5c-.2 0-.4 0-.7-.1h-.7c-.5 0-.9.1-1.1.4s-.4.5-.4.9.1.7.3.9c.2.2.4.3.7.3z"/><path d="M125.7 17.7h-4l-.8 2.6c-.2 0-.4.1-.7.1-.3 0-.6 0-.8-.1l-.1-.1 3.6-10.6c.2 0 .5-.1.9-.1s.7 0 .9.1l3.5 10.6c-.2.2-.5.2-.9.2s-.6-.1-.7-.2c-.2-.1-.3-.4-.4-.7l-.5-1.8zm-3.6-1.4h3.2l-.7-2.3c-.4-1.2-.6-2.1-.8-2.8h-.1c-.1.6-.3 1.3-.6 2.3l-1 2.8z"/><path d="M135.9 14.9v3.7c0 .6.1 1.1.3 1.4-.3.2-.6.3-.9.3s-.6-.1-.7-.3c-.1-.2-.2-.4-.2-.8v-4c0-.5-.1-.9-.2-1.2-.2-.2-.4-.3-.7-.3-.3 0-.7.1-1.1.3-.4.2-.7.4-.9.7v5.5c-.2 0-.5.1-.8.1h-.5c-.1 0-.2 0-.4-.1v-7.7l.1-.1h.6c.6 0 .9.3.9 1 .8-.7 1.6-1.1 2.5-1.1.7 0 1.2.2 1.6.7.3.5.4 1.2.4 1.9z"/><path d="M144.4 19.6c-.1.4-.3.7-.6.8-.6-.1-1-.4-1.2-1-.7.7-1.5 1.1-2.3 1.1-.4 0-.8-.1-1-.2-.3-.1-.5-.3-.8-.5-.2-.2-.4-.5-.5-.7s-.2-.6-.2-.9c0-.9.3-1.5.8-2 .5-.4 1.3-.7 2.2-.7h.8s.5 0 .7.1v-.6c0-.9-.4-1.4-1.3-1.4-.6 0-1.4.2-2.5.6-.3-.3-.5-.7-.5-1.2 1.1-.5 2.2-.7 3.3-.7.8 0 1.5.2 1.9.6.5.4.7 1.1.7 2v3.2c0 .8.2 1.2.5 1.5zm-3.9-.4c.7 0 1.3-.3 1.9-.9v-1.5c-.2 0-.4 0-.7-.1h-.7c-.5 0-.9.1-1.1.4-.3.2-.4.5-.4.9s.1.7.3.9c.1.2.4.3.7.3z"/><path d="M148.5 19h.6c.1.3.2.5.2.7s0 .4-.1.5c-.4.1-.9.1-1.3.1-1 0-1.6-.5-1.6-1.6v-9.9l.1-.1h.6c.3 0 .5.1.7.2.1.2.2.4.2.8v8.6c0 .5.2.7.6.7z"/><path d="M156.7 12.6l-2.1 7.4c-.2.7-.4 1.2-.6 1.7s-.4.9-.7 1.1c-.3.3-.6.5-.9.6-.4.1-.8.2-1.3.2h-.4c-.2 0-.3 0-.5-.1-.2 0-.3-.1-.4-.1-.1 0-.2-.1-.2-.2 0-.2 0-.4.1-.6.1-.2.2-.4.3-.5.3.1.8.2 1.2.2.5 0 .8-.2 1.1-.5.3-.3.5-.8.7-1.5l.1-.2c-.3 0-.6-.1-.8-.2-.2-.1-.3-.3-.4-.6l-2.1-6.9c.4-.2.7-.2 1-.2.4 0 .7.2.8.7l1.1 3.6c.1.2.1.5.2.8.1.4.2.9.4 1.5 0 .1.1.1.2.1l1.7-6.6c.1 0 .2 0 .3-.1h.9c.2 0 .3 0 .4.1l-.1.3z"/><path d="M162.1 12.5c.1.2.1.4.1.6 0 .2 0 .4-.1.6h-1.9v4.7c0 .5.2.7.6.7h1.1c.1.2.1.5.1.7v.5c-.6.1-1.2.1-1.8.1-1.1 0-1.6-.5-1.6-1.6v-5h-1.2l-.1-.6s0-.4.1-.6h1.2v-1.4c0-.4.1-.6.2-.8.1-.2.4-.2.7-.2h.6l.1.1v2.3l1.9-.1z"/><path d="M165.9 13.9v6.4c-.2 0-.5.1-.8.1-.3 0-.6 0-.8-.1v-5.8c0-.3-.1-.5-.2-.6s-.3-.2-.5-.2h-.2c-.1-.2-.1-.4-.1-.6s0-.4.1-.6l1-.1h.2c.4 0 .7.1.9.4.3.3.4.6.4 1.1zm-2-2.9c-.1-.2-.2-.4-.2-.7 0-.4.1-.7.2-.8.2-.1.4-.1.8-.1s.7.1.8.2c.1.1.2.3.2.7 0 .4-.1.6-.2.7-.1.1-.4.2-.8.2-.3 0-.6 0-.8-.2z"/><path d="M172.4 15.5v-.2c0-1.2-.5-1.8-1.4-1.8-.5 0-.9.2-1.2.7-.3.5-.4 1.2-.4 2.2 0 1.8.6 2.7 1.8 2.7.6 0 1.2-.3 1.9-.8.2.1.3.2.4.4.1.2.2.4.3.5-.8.8-1.7 1.2-2.8 1.2-.5 0-1-.1-1.4-.3-.4-.2-.7-.5-1-.9-.3-.4-.5-.8-.6-1.3-.1-.5-.2-1.1-.2-1.7 0-.6.1-1.2.3-1.7.2-.5.4-.9.7-1.2.3-.3.6-.6 1-.8.4-.2.8-.3 1.2-.3.5 0 .9.1 1.2.2.4.1.6.3.9.5.2.2.4.5.6.8.1.3.2.6.2.9 0 .6-.3.9-.8.9-.3.1-.5 0-.7 0z"/><path d="M175 19.7c0-.2.1-.4.2-.6.1-.2.2-.4.4-.5.8.5 1.5.7 2 .7s.9-.1 1.2-.3c.2-.2.4-.4.4-.7 0-.5-.3-.8-1-1.1l-.9-.3c-1.3-.5-2-1.2-2-2.3 0-.7.3-1.3.8-1.7.5-.4 1.2-.6 2-.6.9 0 1.7.2 2.5.6 0 .2 0 .4-.1.7-.1.2-.2.4-.4.5-.7-.3-1.4-.5-2.1-.5-.3 0-.6.1-.8.2-.2.2-.3.4-.3.6 0 .2.1.5.2.6.2.1.4.3.8.4l.9.4c1.3.5 2 1.3 2 2.3 0 .7-.3 1.3-.8 1.7-.5.4-1.3.6-2.3.6-1 .1-1.9-.2-2.7-.7z"/><path d="M186.4 20.3v-6.6h-1.3c0-.1 0-.2-.1-.3v-.3c0-.2 0-.5.1-.6h1.3c-.1-.6-.1-1.1-.1-1.4 0-.4.1-.7.2-1 .1-.3.3-.5.5-.8s.5-.4.8-.5.6-.2 1-.2c.7 0 1.4.1 2 .4 0 .5-.1.9-.4 1.1l-.7-.2-.6-.1c-.4 0-.8.1-.9.4s-.3.6-.3 1.1v.6c0 .2.1.4.1.7h2.2c0 .1 0 .2.1.3v.6c0 .1 0 .2-.1.3h-2.1v6.6c-.1 0-.2 0-.4.1h-.8c-.2-.2-.4-.2-.5-.2z"/><path d="M196.3 19.6c-.6.6-1.3.9-2.3.9-.5 0-1-.1-1.4-.3-.4-.2-.8-.5-1.1-.8-.3-.4-.5-.8-.7-1.3-.2-.5-.2-1.1-.2-1.7 0-.6.1-1.2.2-1.7.2-.5.4-.9.7-1.3.3-.4.6-.6 1.1-.8.4-.2.9-.3 1.4-.3.5 0 1 .1 1.4.3s.8.5 1.1.8c.3.4.5.8.7 1.3s.2 1.1.2 1.7c0 1.4-.4 2.5-1.1 3.2zm-2.3-6.1c-1.1 0-1.7.9-1.7 2.8s.6 2.8 1.7 2.8c1.2 0 1.7-.9 1.7-2.8.1-1.8-.5-2.8-1.7-2.8z"/><path d="M198.9 13.3c.1-.4.3-.7.6-.9.7.2 1.2.6 1.4 1.4.4-.9 1.1-1.4 2.1-1.4.2 0 .5 0 .8.1 0 .6-.1 1.1-.4 1.6-.1 0-.3-.1-.6-.1-.7 0-1.3.4-1.7 1.2v5.1c-.2 0-.5.1-.8.1-.3 0-.6 0-.8-.1v-5.4c0-.7-.2-1.3-.6-1.6z"/><path d="M208.9 9.5l3.2-.1c.5 0 1 .1 1.5.2.5.2.8.4 1.1.7.3.3.5.7.7 1.1.2.4.2.9.2 1.5 0 .5-.1 1.1-.3 1.5-.2.4-.4.8-.7 1.1-.3.3-.7.5-1.1.7-.5.2-.9.2-1.5.2h-1.7v3.8c-.1 0-.2 0-.4.1h-.9c-.2 0-.3 0-.4-.1l.3-10.7zm1.6 5.7h1.6c.4 0 .7-.1.9-.2s.5-.3.6-.5c.2-.2.2-.4.3-.7.1-.3.1-.5.1-.8 0-.3 0-.6-.1-.8-.1-.3-.2-.5-.3-.7s-.3-.4-.6-.5c-.2-.1-.5-.2-.9-.2h-1.6v4.4z"/><path d="M216.8 13.3c.1-.4.3-.7.6-.9.7.2 1.2.6 1.4 1.4.4-.9 1.1-1.4 2.1-1.4.2 0 .5 0 .8.1 0 .6-.1 1.1-.4 1.6-.1 0-.3-.1-.6-.1-.7 0-1.3.4-1.7 1.2v5.1c-.2 0-.5.1-.8.1-.3 0-.6 0-.8-.1v-5.4c0-.7-.2-1.3-.6-1.6z"/><path d="M227.9 19.6c-.6.6-1.3.9-2.3.9-.5 0-1-.1-1.4-.3-.4-.2-.8-.5-1.1-.8-.3-.4-.5-.8-.7-1.3-.2-.5-.2-1.1-.2-1.7 0-.6.1-1.2.2-1.7.2-.5.4-.9.7-1.3.3-.4.6-.6 1.1-.8.4-.2.9-.3 1.4-.3.5 0 1 .1 1.4.3s.8.5 1.1.8c.3.4.5.8.7 1.3.2.5.2 1.1.2 1.7 0 1.4-.4 2.5-1.1 3.2zm-2.3-6.1c-1.1 0-1.7.9-1.7 2.8s.6 2.8 1.7 2.8c1.2 0 1.7-.9 1.7-2.8.1-1.8-.5-2.8-1.7-2.8z"/><path d="M235 15.5v-.2c0-1.2-.5-1.8-1.4-1.8-.5 0-.9.2-1.2.7-.3.5-.4 1.2-.4 2.2 0 1.8.6 2.7 1.8 2.7.6 0 1.2-.3 1.9-.8.2.1.3.2.4.4.1.2.2.4.3.5-.8.8-1.7 1.2-2.8 1.2-.5 0-1-.1-1.4-.3-.4-.2-.7-.5-1-.9-.3-.4-.5-.8-.6-1.3-.1-.5-.2-1.1-.2-1.7 0-.6.1-1.2.3-1.7.2-.5.4-.9.7-1.2.3-.3.6-.6 1-.8.4-.2.8-.3 1.2-.3.5 0 .9.1 1.2.2.4.1.6.3.9.5.2.2.4.5.6.8.1.3.2.6.2.9 0 .6-.3.9-.8.9-.3.1-.5 0-.7 0z"/><path d="M238.3 17.8v-3.7c0-.6-.1-1.1-.3-1.4.3-.2.6-.3 1-.3.6 0 .9.3.9 1v4c0 .5.1.9.2 1.2.1.2.4.3.7.3.4 0 .7-.1 1.1-.2.4-.2.7-.4.9-.7v-5.5l.8-.1c.2 0 .5 0 .8.1v5.6c0 .7.2 1.2.4 1.5-.1.4-.3.6-.6.8-.7-.1-1.1-.5-1.3-1.1-.8.8-1.7 1.2-2.6 1.2-.7 0-1.2-.2-1.6-.7-.2-.6-.4-1.2-.4-2z"/><path d="M246.5 13.3c.1-.4.3-.7.6-.9.7.2 1.2.6 1.4 1.4.4-.9 1.1-1.4 2.1-1.4.2 0 .5 0 .8.1 0 .6-.1 1.1-.4 1.6-.1 0-.3-.1-.6-.1-.7 0-1.3.4-1.7 1.2v5.1c-.2 0-.5.1-.8.1-.3 0-.6 0-.8-.1v-5.4c0-.7-.2-1.3-.6-1.6z"/><path d="M258.2 16.9h-4.6c0 .7.2 1.3.5 1.7.3.4.8.6 1.4.6.3 0 .6-.1 1-.2s.7-.2 1.1-.5c.3.2.4.6.5 1-.9.6-1.8.9-3 .9-.6 0-1.1-.1-1.5-.3-.4-.2-.7-.5-1-.9-.2-.4-.5-.8-.5-1.3-.1-.5-.2-1.1-.2-1.6 0-.6.1-1.1.2-1.6.2-.5.4-.9.6-1.3.3-.4.6-.6 1-.9.4-.2.9-.3 1.4-.3s.9.1 1.3.2c.4.2.7.4 1 .7.3.3.5.7.6 1.1.2.4.2.9.2 1.3v1.4zm-3-3.4c-1 0-1.5.7-1.6 2.2h3.2v-.2c0-.6-.1-1.1-.4-1.5-.3-.3-.7-.5-1.2-.5z"/><path d="M264.6 15.4c0-.5-.1-.9-.2-1.2-.2-.2-.4-.4-.7-.4-.6 0-1.1.3-1.7.9v5.5c-.2 0-.5.1-.8.1h-.5c-.1 0-.2 0-.4-.1v-7.7l.1-.1h.6c.6 0 .9.3.9 1 .7-.7 1.5-1.1 2.3-1.1s1.4.4 1.7 1.2c.9-.8 1.7-1.2 2.5-1.2.7 0 1.2.2 1.5.7.3.5.5 1.1.5 1.8v3.8c0 .6.1 1.1.2 1.4-.3.2-.6.3-1 .3-.6 0-.9-.3-.9-1v-4c0-.5-.1-.9-.2-1.2-.2-.2-.4-.3-.7-.3-.6 0-1.1.3-1.7.9v5.5c-.1 0-.2 0-.4.1h-.9c-.2 0-.3 0-.4-.1l.2-4.8z"/><path d="M278.6 16.9h-4.6c0 .7.2 1.3.5 1.7.3.4.8.6 1.4.6.3 0 .6-.1 1-.2s.7-.2 1.1-.5c.3.2.4.6.5 1-.9.6-1.8.9-3 .9-.6 0-1.1-.1-1.5-.3-.4-.2-.7-.5-1-.9-.2-.4-.5-.8-.5-1.3-.1-.5-.2-1.1-.2-1.6 0-.6.1-1.1.2-1.6.2-.5.4-.9.6-1.3.3-.4.6-.6 1-.9.4-.2.9-.3 1.4-.3.5 0 .9.1 1.3.2.4.2.7.4 1 .7s.5.7.6 1.1c.2.4.2.9.2 1.3v1.4zm-3-3.4c-1 0-1.5.7-1.6 2.2h3.2v-.2c0-.6-.1-1.1-.4-1.5-.3-.3-.7-.5-1.2-.5z"/><path d="M286.9 14.9v3.7c0 .6.1 1.1.3 1.4-.3.2-.6.3-.9.3-.4 0-.6-.1-.7-.3-.1-.2-.2-.4-.2-.8v-4c0-.5-.1-.9-.2-1.2-.2-.2-.4-.3-.7-.3-.3 0-.7.1-1.1.3-.4.2-.7.4-.9.7v5.5c-.2 0-.5.1-.8.1h-.5c-.1 0-.2 0-.4-.1v-7.7l.1-.1h.6c.6 0 .9.3.9 1 .8-.7 1.6-1.1 2.5-1.1.7 0 1.2.2 1.6.7.2.5.4 1.2.4 1.9z"/><path d="M293.1 12.5c.1.2.1.4.1.6 0 .2 0 .4-.1.6h-1.9v4.7c0 .5.2.7.6.7h1.1c.1.2.1.5.1.7v.5c-.6.1-1.2.1-1.8.1-1.1 0-1.6-.5-1.6-1.6v-5h-1.2l-.1-.6s0-.4.1-.6h1.2v-1.4c0-.4.1-.6.2-.8.1-.2.4-.2.7-.2h.6l.1.1v2.3l1.9-.1z"/></g></g></svg>