<svg xmlns="http://www.w3.org/2000/svg" width="160" height="32" viewBox="0 0 160 32"><radialGradient id="a" cx="28.067" cy="24.411" r="16" gradientTransform="matrix(1 0 0 -1 0 32)" gradientUnits="userSpaceOnUse"><stop offset="0" stop-color="#333" stop-opacity=".5"/><stop offset="1" stop-color="#333"/></radialGradient><path fill="url(#a)" d="M19.6 26.2c2.1 0 4.1-.3 5.9-.9.4-.1.9-.3 1.3-.5-.5 1.2-1.2 2.2-2.2 2.9-1.9 1.4-4 2.3-6.4 2.7.6-1.1 1-2.5 1.4-4.2m-9.9 2.9l-.1-.1c-.8-.4-1.2-2.2-.7-5.1 1.6.7 3.3 1.3 5.1 1.7 1.4.3 2.7.5 4.1.5-.7 2.9-1.5 4.4-2.1 4.4h-.1c-2.2 0-4.3-.5-6.2-1.4m-7.7-9.1c-.1-.5-.2-1-.2-1.5.5.7 1.1 1.4 1.8 2.1 1.1 1 2.4 1.9 3.8 2.7-.3 1.6-.4 3.1-.2 4.3-2.4-1.9-4.3-4.6-5.2-7.6m18.5-4v-1.7c1.9-.1 3.6-.6 5-1.4 1.3 2.6 2 5.3 2 7.8 0 .7-.1 1.4-.2 2.1-.7.4-1.4.8-2.3 1.1-1.5.5-3.3.8-5.1.8.4-2.7.6-5.7.6-8.7m-6.2 8.1c-1.8-.4-3.6-1-5.2-1.7.5-2.3 1.5-5.2 3-8.3.2-.5.4-.9.7-1.3 1.1.5 2.2.9 3.5 1.1.9.2 1.9.3 2.8.3v1.7c0 3.5-.3 6.4-.7 8.7-1.4 0-2.7-.2-4.1-.5m-9.7-4.6c-1.3-1.2-2.1-2.4-2.6-3.6.4-1.4 1-2.8 2-4.1s2.2-2.4 3.6-3.4c.4.7.9 1.4 1.6 2 .7.6 1.4 1.2 2.3 1.7-.2.4-.5.9-.7 1.4-1.3 2.7-2.4 5.6-3 8.2-1.2-.6-2.3-1.4-3.2-2.2m14.9-13.9c1.7 1.3 3.2 2.9 4.5 4.8l.7 1.1c-1.2.7-2.7 1.1-4.3 1.2-.1-2.5-.4-5-.9-7.1m-2.9 6.9c-1.1-.2-2.1-.6-3-1 1.4-2.4 2.9-4.5 4.4-6.1.5 1.8.9 4.3 1 7.4l-2.4-.3m-6.4-3.1c-.6-.6-1.1-1.2-1.4-1.8 1.4-.8 2.9-1.5 4.6-2 1-.3 2-.5 3-.7-1.4 1.6-2.8 3.6-4.2 5.9-.7-.4-1.4-.9-2-1.4m-3.2-4.8v.2c-.2.7-.2 1.5 0 2.2-1.6 1.1-3 2.4-4.1 3.9-.3.4-.6.9-.9 1.4.8-3.1 2.6-5.8 5-7.7m1.4.6c.2-.8.6-1.5 1.3-2 1.7-.5 3.8-.4 5.9.4l-2.7.6c-1.6.5-3.2 1.2-4.6 2 0-.4.1-.7.1-1m12.1-2c.5-.3 1-.6 1.4-.7.7.3 1.5.7 2.2 1.2-1.2-.3-2.4-.4-3.6-.5m-2.5-1.6c.6.1 1.2.2 1.9.3-.4.2-.8.5-1.3.8-.2-.4-.4-.8-.6-1.1m-1.6.6c-.7-.3-1.3-.5-2-.6.5-.1 1.1-.1 1.6-.1.3 0 .6.3.9.9-.2-.1-.4-.2-.5-.2m-16.4 13.8c0 1.5.2 3 .6 4.4 0 .1 0 .2.1.3v.1c2 6.4 8.1 11.2 15.3 11.2 3.3 0 6.4-1 9-2.8h.1c.2-.1.3-.2.4-.3 2.9-2.2 5.1-5.3 6-9 .1-.2.1-.3.1-.5v-.1c.2-1 .3-2.1.3-3.3 0-2.2-.4-4.3-1.3-6.2-.2-.4-.6-.6-1-.4-.4.2-.6.6-.4 1 .8 1.8 1.1 3.7 1.1 5.6 0 1.2-.1 2.4-.4 3.5-.2.7-.6 1.4-1.1 1.9v-.8c0-2.9-.8-5.9-2.2-8.7 1.1-.9 1.8-2.1 2-3.3.1-.4-.2-.8-.6-.9s-.8.2-.9.6c-.2.8-.6 1.6-1.3 2.3-.2-.4-.4-.7-.7-1-1.1-1.9-2.7-3.6-4.4-4.9 2.2.1 4.3.7 6 1.6.3.1.6.1.9-.1.3-.3.4-.7.1-1-2.4-3.4-6.6-5.2-11.7-5.2-8.8 0-16 7.2-16 16"/><g fill="#333"><path d="M134.7 23.6c1 0 1.6.5 1.6 1.4s-.6 1.4-1.5 1.4h-.7v1.3h-.9v-4.1h1.5zm-.5 2.1h.5c.5 0 .8-.2.8-.7 0-.4-.3-.7-.8-.7h-.5v1.4zm-2.5.3c0 .6-.2.9-.7.9s-.7-.3-.7-.9v-2.5h-.9v2.5c0 .6.1 1 .4 1.3.3.3.7.4 1.2.4.7 0 1.6-.3 1.6-1.7v-2.4h-.9v2.4zm-4.7-2.5c.9 0 1.8.6 1.8 2.1s-.9 2.1-1.8 2.1-1.8-.5-1.8-2.1c-.1-1.5.9-2.1 1.8-2.1m0 3.5c.3 0 .9-.2.9-1.3s-.6-1.3-.9-1.3c-.6 0-.9.5-.9 1.3-.1.8.3 1.3.9 1.3m-2.8-.5c.1.3.3.5.6.5h.2v.7h-.4c-.7 0-.9-.5-1.1-.9-.2-.3-.3-.6-.6-.6h-.4v1.5h-.9v-4.1h1.5c1.1 0 1.6.4 1.6 1.3 0 .6-.3.9-.7 1 0 .2.1.4.2.6m-1.8-1h.5c.5 0 .8-.2.8-.6s-.3-.6-.7-.6h-.6v1.2zm-3.2.7h.9c0 .3-.1.7-.7.7s-1-.5-1-1.3.3-1.3.9-1.3c.7 0 .7.7.7.7l.8-.1c0-.3-.3-1.4-1.6-1.4-1.2 0-1.8.8-1.8 2.1s.7 2.1 1.8 2.1c1.2 0 1.6-.8 1.6-1.5v-.7h-1.7l.1.7zm-2.6-2.6h-1l-1.4 1.9v-1.9h-.9v4.1h.9v-1.9l1.4 1.9h1.1l-1.6-2.1 1.5-2zm-5 2.5l-1.4-2.5h-.9v4.1h.9v-2.5l1.4 2.5h.9v-4.1h-.9v2.5zm-4.1-2.5l1.5 4.1h-.9l-.4-1h-1.4l-.3 1h-.9l1.5-4.1h.9zm-.4 1.1l-.4 1.3h.9l-.5-1.3zm-2.8.8c.3.1.7.4.7 1 0 .7-.5 1.2-1.4 1.2h-1.7v-4.1h1.6c.9 0 1.3.4 1.3 1.1 0 .6-.3.8-.5.8m-.9-.2c.4 0 .5-.2.5-.5s-.2-.5-.6-.5h-.5v1h.6zm-.6 1.7h.7c.4 0 .7-.2.7-.5 0-.4-.4-.5-.7-.5h-.7v1zm-4.5-3.4c1.3 0 2 .8 2 2.1s-.7 2-1.9 2h-1.4v-4.1h1.3zm-.4 3.4h.5c.6 0 1-.5 1-1.3 0-.9-.4-1.4-1.2-1.4h-.3v2.7zm-3-3.4h-.9v4.1h2.7v-.7h-1.8v-3.4zm-2.1 2.9c.1.3.3.5.6.5h.2v.7h-.4c-.7 0-.9-.5-1.1-.9-.2-.3-.3-.6-.6-.6h-.5v1.5h-.9v-4.1h1.5c1.1 0 1.6.4 1.6 1.3 0 .6-.3.9-.7 1l.3.6m-1.8-1h.5c.5 0 .8-.2.8-.6s-.3-.6-.7-.6h-.6v1.2zm-3.2-2c.9 0 1.8.6 1.8 2.1s-1 2.1-1.8 2.1c-.9 0-1.8-.5-1.8-2.1-.1-1.5.9-2.1 1.8-2.1m0 3.5c.3 0 .9-.2.9-1.3s-.6-1.3-.9-1.3c-.6 0-.9.5-.9 1.3-.1.8.3 1.3.9 1.3m-3-3.4h1l-1.2 4.1h-1l-.7-2.6-.7 2.6h-1l-1.2-4.1h1l.7 3 .8-3h.7l.8 3 .8-3zm-45.4-1.3h1.1v5.3h-1.1v-5.3zm2 5.4v-5.3h2c1.1 0 1.7.4 1.7 1.4 0 .9-.6 1.1-.8 1.1.4 0 1.2.3 1.2 1.3 0 1.1-.9 1.5-1.9 1.5h-2.2zm1.9-3.1c.6 0 .8-.3.8-.7 0-.4-.3-.7-.9-.7h-.7v1.4h.8zm.1 2.2c.5 0 .9-.2.9-.8 0-.5-.4-.8-.9-.8h-.9v1.5l.9.1zm7.2.9s-.2.1-.6.1c-1.6 0-1.2-2-2.3-2h-.6v2h-1.1v-5.3h2c1.3 0 2 .5 2 1.7 0 .8-.5 1.2-.9 1.4.5.4.6 1.5 1.3 1.5h.2v.6zm-2.7-2.8c.6 0 1.1-.3 1.1-.8s-.4-.9-1-.9h-.8v1.7h.7zm3.2 2.8v-5.3h1.6c1.4 0 2.7.8 2.7 2.8 0 1.9-1.1 2.6-2.4 2.6h-1.9v-.1zm1.8-.9c.8 0 1.4-.6 1.4-1.7 0-1.2-.5-1.9-1.6-1.9h-.5v3.6h.7zm5.6-.3c-.5 0-1-.4-1-1s.4-1 1-1c.5 0 1 .4 1 1-.1.5-.5 1-1 1M61.8 22.3h1.1v5.3h-1.1v-5.3zm2 5.4v-5.3h1.6c1.4 0 2.7.8 2.7 2.8 0 1.9-1.1 2.6-2.4 2.6h-1.9v-.1zm1.8-.9c.8 0 1.4-.6 1.4-1.7 0-1.2-.5-1.9-1.6-1.9h-.5v3.6h.7zm5.9-.4h-1.9l-.5 1.3h-1.1l2-5.3h1.1l2 5.3h-1.1l-.5-1.3zm-1.6-.8h1.3l-.7-1.9-.6 1.9zm-33.3-16.2h8v1.6h-2.9v8.2h-2.1v-8.2h-3v-1.6zm9.1 9.8v-9.8h2.1v3.8h3.7v-3.8h2.2v9.8h-2.2v-4.3h-3.7v4.3h-2.1zm9.7-9.8h6.5v1.6h-4.4v2.3h4.2v1.6h-4.2v2.7h4.6v1.6h-6.7v-9.8zm17 0h2.4l1.7 7.4 1.6-7.4h2l-2.5 9.8h-2.3l-1.8-7.5-1.9 7.5h-2.4l-2.4-9.8h2.2l1.5 7.4 1.9-7.4zm8.4 4.9c0-2.9 1.5-5.1 4.7-5.1s4.7 2.2 4.7 5.1-1.5 5.1-4.7 5.1-4.7-2.2-4.7-5.1m2.3 0c0 1.7.4 3.6 2.5 3.6s2.5-1.9 2.5-3.6-.4-3.6-2.5-3.6c-2.2 0-2.5 1.9-2.5 3.6M93.7 19.2h-2.1v-9.8h4.2c1.7 0 3.4.6 3.4 2.6 0 1.3-.8 2.1-2 2.4 1.6.2 1.6 1.2 1.8 2.5.1.6.2 1.8.6 2.3h-2.3c-.2-.9-.3-1.8-.4-2.6-.1-.5-.2-1.3-.9-1.3h-2.2l-.1 3.9zm0-5.6h1.8c.9 0 1.5-.5 1.5-1.3 0-.9-.5-1.2-1.5-1.2h-1.8v2.5zm7.1 5.6v-9.8h2.1v8.2h4.3v1.6h-6.4zm7.5-9.8h3.3c3.1 0 5 1.5 5 4.9s-1.9 4.9-5 4.9h-3.3v-9.8zm2.1 8.2h1.1c2.5 0 2.9-1.7 2.9-3.3s-.4-3.3-2.9-3.3h-1.1v6.6zm11.5 1.6v-9.8h3.7c1.8-.1 3.5.6 3.5 2.5 0 1.1-.7 1.8-1.7 2.1 1.2.3 2.2 1.1 2.2 2.6 0 1.9-2.4 2.6-4 2.5h-3.7v.1zm3.8-1.6c1 0 1.7-.2 1.7-1.3s-.7-1.3-1.7-1.3h-1.7v2.6h1.7zm0-4.3c.9 0 1.4-.4 1.4-1.2s-.5-1.2-1.4-1.2h-1.7v2.3l1.7.1zm4.5 5.9l3.5-9.8h2.5l3.4 9.8h-2.1l-.7-2.1h-3.8l-.7 2.1h-2.1zm6.1-3.7l-1.3-4.2-1.4 4.2h2.7zm10.3 3.7l-3.8-8.2-.1.1v8.1h-1.9v-9.8h3.1l3.7 7.7h.1v-7.7h1.9v9.8h-3zm6.9-5.6l3.2-4.2h2.5l-3.6 4.4 3.9 5.4h-2.6l-3.4-5v5h-2.1v-9.8h2.1v4.2zm-77.1 14.7c-.2 0-.3-.1-.3-.3v-6c0-.2.1-.3.3-.3.2 0 .3.1.3.3v6c0 .2-.1.3-.3.3"/></g></svg>